<svg width="66" height="66" viewBox="0 0 66 66" fill="none" xmlns="http://www.w3.org/2000/svg">
<g clip-path="url(#clip0_33_124)">
<path d="M59.87 0H6.12765C4.84032 0 3.8745 1.08935 3.98808 2.37654L8.8968 57.3844C9.01051 58.6706 10.123 60.0168 11.3708 60.3644L30.7216 65.7396C31.9677 66.085 34.0045 66.0872 35.2524 65.7441L54.6272 60.3765C55.8752 60.0298 56.9877 58.6958 57.1013 57.4074L62.0121 2.37654C62.1257 1.08935 61.1639 0 59.87 0ZM50.5497 19.8563C50.5488 19.8647 50.5422 19.8713 50.534 19.8727C50.5255 19.8741 50.5174 19.8697 50.5138 19.8619L35.3529 26.0748C35.137 26.1632 35.0139 26.3922 35.0588 26.6212C35.1039 26.8502 35.3047 27.0153 35.5382 27.0153H47.3308C47.9582 27.0153 48.5558 27.2817 48.9753 27.7482C49.3947 28.2147 49.5963 28.8375 49.5297 29.4611L47.6871 46.7461C47.5967 47.5941 47.0268 48.3146 46.2223 48.5977L33.7052 53.0019C33.2338 53.1679 32.7199 53.1692 32.2474 53.0054L19.7889 48.6898C18.9794 48.4094 18.4048 47.6868 18.3138 46.835L17.4785 39.007C17.4346 38.596 17.5674 38.1857 17.8436 37.8785C18.12 37.5711 18.5137 37.3956 18.9271 37.3956H22.3939C23.1389 37.3956 23.7637 37.9574 23.8425 38.6981L24.355 43.5098L32.9813 46.5083L41.6471 43.4824L42.707 33.5032H18.2051C17.4624 33.5032 16.8385 32.9444 16.7571 32.2062L16.2906 27.9767C16.2193 27.3315 16.5834 26.7172 17.1832 26.47L32.8646 20.0048C33.0426 19.9314 33.1437 19.7428 33.1064 19.5541C33.0689 19.3655 32.9036 19.2296 32.7114 19.2296H16.201C15.7039 19.2296 15.287 18.8543 15.2352 18.3602L14.7576 13.8142C14.7288 13.5406 14.8176 13.2676 15.0017 13.063C15.1858 12.8586 15.4482 12.7418 15.7233 12.7418H50.2698C50.5464 12.7418 50.8099 12.8599 50.9941 13.0661C51.1784 13.2725 51.2659 13.5476 51.2346 13.8225L50.5497 19.8563Z" fill="black"/>
</g>
<defs>
<clipPath id="clip0_33_124">
<rect width="66" height="66" fill="white"/>
</clipPath>
</defs>
</svg>
