<svg width="62" height="62" viewBox="0 0 62 62" fill="none" xmlns="http://www.w3.org/2000/svg">
<path d="M4.63051 0C4.06068 0 3.63611 0.464355 3.68667 1.0319L8.4906 54.9159C8.54116 55.4835 9.03163 56.0726 9.58094 56.2251L29.9664 61.8852C30.5155 62.0377 31.4139 62.0377 31.9632 61.8856L52.4106 56.2162C52.9597 56.0639 53.4508 55.4748 53.5013 54.9074L58.3131 1.0319C58.3641 0.464355 57.9391 0 57.3693 0H4.63051ZM48.0826 12.3581C48.0372 12.8644 47.9587 13.7431 47.9082 14.3107L47.7815 15.7245C47.7306 16.2918 47.6581 17.1032 47.6197 17.5274C47.5816 17.9517 47.5453 18.2988 47.5387 18.2988C47.5323 18.2988 47.0607 18.2988 46.4908 18.2988H32.036C31.4661 18.2988 30.9951 18.2988 30.9889 18.2988C30.9827 18.2988 30.5113 18.2988 29.9415 18.2988H22.3286C21.7588 18.2988 21.3342 18.7632 21.3848 19.3307L21.8288 24.2944C21.8794 24.8617 22.3873 25.3263 22.9571 25.3263H29.9417C30.5115 25.3263 30.9829 25.3263 30.9891 25.3263C30.9953 25.3263 31.4663 25.3263 32.0362 25.3263H44.0416C44.6115 25.3263 45.4933 25.3263 46.0012 25.3263C46.5087 25.3263 46.8866 25.7405 46.8406 26.2467C46.7944 26.7529 46.7155 27.6319 46.6649 28.1993L45.237 44.2016C45.1861 44.7691 45.1216 45.4942 45.0938 45.8128C45.0655 46.1313 44.5932 46.5165 44.0441 46.6688L31.9984 50.0088C31.4493 50.1609 30.9931 50.2869 30.9846 50.2888C30.9761 50.2906 30.52 50.1673 29.9707 50.015L17.9122 46.669C17.3631 46.5167 16.8724 45.9276 16.8218 45.3601L16.0456 36.648C15.9951 36.0805 16.4201 35.6161 16.9899 35.6161H18.0904C18.6602 35.6161 19.5926 35.6161 20.1625 35.6161H21.8036C22.3734 35.6161 22.8808 36.0805 22.9318 36.648L23.2362 40.0584C23.2868 40.626 23.7781 41.2118 24.3284 41.3603L29.9688 42.8835C30.5188 43.0321 30.9709 43.1537 30.9734 43.1537C30.9759 43.1537 31.4278 43.0319 31.9779 42.8833L37.6285 41.3564C38.1785 41.2078 38.6702 40.6218 38.7211 40.0545L39.3339 33.2216C39.3848 32.654 38.9603 32.1897 38.3904 32.1897H32.0362C31.4663 32.1897 30.9953 32.1897 30.9891 32.1897C30.9829 32.1897 30.5115 32.1897 29.9417 32.1897H16.6826C16.1128 32.1897 15.6053 31.7251 15.5548 31.1578L14.0513 14.3105C14.0007 13.7429 13.9222 12.8644 13.8768 12.3579C13.8318 11.8517 14.261 11.4375 14.8308 11.4375H29.9417C30.5115 11.4375 30.9829 11.4375 30.9891 11.4375C30.9953 11.4375 31.4663 11.4375 32.0362 11.4375H47.1288C47.6985 11.4375 48.1278 11.8517 48.0826 12.3581Z" fill="black"/>
</svg>
