<svg width="67" height="67" viewBox="0 0 67 67" fill="none" xmlns="http://www.w3.org/2000/svg">
<path d="M33.1682 12.4143C30.0724 14.5917 26.5636 17.0597 24.6836 21.1427C21.4182 28.2658 31.3656 36.036 31.7906 36.3633C31.8895 36.4395 32.0077 36.4773 32.1256 36.4773C32.2509 36.4773 32.3763 36.4345 32.4782 36.3493C32.6757 36.1841 32.7317 35.9035 32.6131 35.6751C32.5771 35.6057 29.0065 28.6702 29.1392 23.6944C29.1862 21.9617 31.6114 19.9958 34.1789 17.9144C36.5305 16.0081 39.196 13.8474 40.7557 11.3199C44.1795 5.75628 40.3741 0.285583 40.3352 0.231105C40.1841 0.0189021 39.9051 -0.0582026 39.6665 0.0465807C39.4282 0.151584 39.2962 0.409478 39.3506 0.664077C39.3583 0.700103 40.0984 4.31787 38.0392 8.04504C37.1906 9.58515 35.3267 10.8964 33.1682 12.4143Z" fill="black"/>
<path d="M46.2112 14.8678C46.4295 14.7033 46.4937 14.4032 46.3614 14.1638C46.2292 13.9243 45.9412 13.8187 45.6855 13.9158C45.1596 14.1157 32.8068 18.877 32.8068 24.6305C32.8068 28.5962 34.5009 30.6914 35.7379 32.2214C36.2232 32.8213 36.6421 33.3395 36.78 33.782C37.1686 35.0569 36.248 37.3613 35.8609 38.1416C35.7493 38.3661 35.804 38.6378 35.9938 38.8017C36.0964 38.8902 36.2245 38.935 36.3528 38.935C36.462 38.935 36.5716 38.9025 36.6662 38.8366C36.8787 38.6888 41.8571 35.169 40.9641 30.9282C40.6315 29.3165 39.8394 28.1386 39.1404 27.0993C38.0576 25.4894 37.2756 24.3262 38.4621 22.178C39.8526 19.6729 46.1477 14.9155 46.2112 14.8678Z" fill="black"/>
<path d="M14.0568 39.0266C13.845 39.6603 13.945 40.2897 14.3457 40.8461C15.6848 42.705 20.4279 43.7288 27.7021 43.7288C27.7026 43.7288 27.7028 43.7288 27.703 43.7288C28.6887 43.7288 29.7292 43.7095 30.7951 43.6713C42.4251 43.2548 46.7388 39.6318 46.9168 39.4778C47.1107 39.3099 47.1626 39.0303 47.042 38.804C46.9214 38.578 46.6613 38.4644 46.4128 38.5327C42.3171 39.6511 34.6686 40.048 29.3635 40.048C23.4273 40.048 20.4042 39.6205 19.6641 39.3049C20.0439 38.7834 22.3863 37.8522 25.2888 37.2813C25.5662 37.2268 25.7569 36.9707 25.7295 36.6893C25.702 36.4079 25.4656 36.1932 25.1829 36.1932C23.4813 36.1935 14.9487 36.3301 14.0568 39.0266Z" fill="black"/>
<path d="M52.9733 35.2953C50.5745 35.2953 48.2998 36.4973 48.204 36.5485C47.9822 36.6674 47.8697 36.9217 47.9305 37.166C47.9916 37.4101 48.2111 37.5816 48.4628 37.5818C48.5138 37.5821 53.5796 37.6234 54.0385 40.5178C54.4449 43.0148 49.2453 47.0607 47.2074 48.409C46.9873 48.5547 46.9018 48.8363 47.004 49.0794C47.0907 49.2866 47.2926 49.4162 47.5101 49.4162C47.5481 49.4162 47.5865 49.4123 47.6248 49.4039C48.1085 49.3007 59.4552 46.8004 58.2555 40.1937C57.5236 36.145 54.9789 35.2953 52.9733 35.2953Z" fill="black"/>
<path d="M45.1919 47.6007C45.2314 47.3889 45.1434 47.1736 44.9672 47.0502L42.2465 45.1445C42.1139 45.0516 41.9463 45.0224 41.7905 45.0637C41.7622 45.0711 38.917 45.8189 34.7863 46.2776C33.1469 46.4614 31.3106 46.5585 29.4757 46.5585C25.3461 46.5585 22.6459 46.0733 22.2527 45.7174C22.2007 45.6175 22.2171 45.572 22.2264 45.5467C22.2977 45.3479 22.6806 45.1118 22.9275 45.0184C23.2002 44.9176 23.3471 44.6215 23.2623 44.3434C23.1778 44.0653 22.8911 43.9014 22.6081 43.9695C19.8789 44.6281 18.5444 45.5491 18.6415 46.7068C18.814 48.7592 23.5683 49.8127 27.5877 50.0915C28.1656 50.1311 28.7908 50.1513 29.4452 50.1513C29.4456 50.1513 29.4459 50.1513 29.4463 50.1513C36.1298 50.1513 44.6979 48.0543 44.7835 48.033C44.9927 47.9813 45.1521 47.8124 45.1919 47.6007Z" fill="black"/>
<path d="M24.6803 52.0061C24.8864 51.8718 24.9778 51.6172 24.9046 51.3826C24.8317 51.148 24.6122 50.994 24.3658 50.9971C24 51.0068 20.7869 51.1518 20.5619 53.1976C20.4938 53.8089 20.6689 54.3673 21.0825 54.8574C22.2363 56.2246 25.3503 57.0372 30.6013 57.3419C31.2226 57.379 31.8535 57.3977 32.4771 57.3977C39.1529 57.3977 43.6489 55.3075 43.8372 55.2185C44.0198 55.1322 44.1401 54.953 44.1509 54.7513C44.1617 54.5499 44.0611 54.3585 43.8888 54.2533L40.4505 52.1543C40.3313 52.0816 40.1885 52.0575 40.0523 52.0854C40.0305 52.09 37.8474 52.5427 34.5528 52.9902C33.9294 53.0748 33.1487 53.1178 32.2326 53.1178C28.9415 53.1178 25.2809 52.5801 24.5788 52.2282C24.5687 52.162 24.5817 52.0786 24.6803 52.0061Z" fill="black"/>
<path d="M29.3659 63.7087C44.6572 63.6957 52.8644 60.9764 54.4453 59.2652C55.0051 58.6595 55.0655 58.0864 55.0178 57.7121C54.9003 56.7908 54.0614 56.2269 53.966 56.1656C53.7365 56.018 53.4285 56.0566 53.2495 56.2631C53.0709 56.4698 53.0667 56.7715 53.2459 56.9777C53.3424 57.1018 53.3982 57.3094 53.1161 57.5917C52.4841 58.182 46.1093 59.9738 35.4952 60.512C34.0412 60.5878 32.5162 60.626 30.9627 60.6262C21.4593 60.6262 14.5043 59.3247 13.5913 58.566C13.9434 58.0605 16.4033 57.2525 19.0196 56.7958C19.3144 56.7444 19.5136 56.4666 19.4679 56.1709C19.4223 55.8752 19.1496 55.6716 18.8518 55.7104C18.778 55.7203 18.5278 55.7357 18.2376 55.7533C13.9208 56.0169 8.93229 56.6045 8.67198 58.8285C8.5929 59.5064 8.79434 60.1214 9.2708 60.657C10.4366 61.9669 13.7877 63.7085 29.3652 63.7085C29.3657 63.7087 29.3657 63.7087 29.3659 63.7087Z" fill="black"/>
<path d="M57.4489 59.7474C57.2328 59.6474 56.9775 59.6979 56.8161 59.8719C56.7934 59.8961 54.4946 62.3002 47.5822 63.7118C44.9358 64.2421 39.9684 64.5109 32.8178 64.5109C25.6539 64.5109 18.8373 64.2291 18.7692 64.2262C18.4845 64.2124 18.2409 64.4193 18.2022 64.6996C18.1633 64.9799 18.3439 65.2438 18.6189 65.3092C18.6899 65.3261 25.8338 66.9998 35.6017 66.9998C40.2867 66.9998 44.8455 66.6191 49.1519 65.8683C57.1816 64.4606 57.7437 60.4791 57.7637 60.3104C57.7916 60.0745 57.6646 59.8473 57.4489 59.7474Z" fill="black"/>
</svg>
