<svg width="76" height="76" viewBox="0 0 76 76" fill="none" xmlns="http://www.w3.org/2000/svg">
<path d="M4.75 4.75V71.25H71.25V4.75H4.75ZM40.9403 56.6129C40.9403 63.0848 37.1403 66.0392 31.6041 66.0392C26.6024 66.0392 23.7073 63.4576 22.2229 60.325L27.3149 57.2518C28.2958 58.9879 29.1864 60.458 31.3381 60.458C33.3854 60.458 34.6916 59.6552 34.6916 56.525V35.283H40.9403V56.6129ZM55.7222 66.0392C49.9178 66.0392 46.1629 63.2795 44.3365 59.6553L49.4285 56.7174C50.7656 58.9 52.516 60.5174 55.5892 60.5174C58.1709 60.5174 59.8358 59.2254 59.8358 57.4299C59.8358 55.2924 58.1424 54.5347 55.2781 53.2736L53.7201 52.6063C49.2076 50.692 46.2246 48.2719 46.2246 43.1799C46.2246 38.4893 49.8014 34.9268 55.3684 34.9268C59.3465 34.9268 62.1965 36.3066 64.2461 39.9285L59.3774 43.0469C58.3086 41.1326 57.1496 40.375 55.3541 40.375C53.5301 40.375 52.3711 41.534 52.3711 43.0469C52.3711 44.9184 53.5301 45.6736 56.2163 46.8469L57.7743 47.5143C63.0895 49.7848 66.0725 52.117 66.0725 57.3396C66.0725 62.9517 61.6479 66.0369 55.7246 66.0369L55.7222 66.0392Z" fill="black"/>
</svg>
