<svg width="68" height="68" viewBox="0 0 68 68" fill="none" xmlns="http://www.w3.org/2000/svg">
<path d="M46.4808 16.082C46.155 16.082 45.934 16.1217 45.7045 16.1755V16.2124H45.7442C45.8972 16.507 46.1578 16.7224 46.3505 16.9859C46.5035 17.289 46.6338 17.5922 46.7868 17.8925L46.8265 17.85C47.0928 17.663 47.2232 17.3627 47.2232 16.9065C47.1098 16.7734 47.0928 16.6402 46.9965 16.5099C46.8832 16.32 46.6395 16.2265 46.4865 16.0764L46.4808 16.082ZM16.3483 53.465H13.7218C13.6368 49.0394 13.3733 44.88 12.9568 40.97H12.9342L8.93917 53.465H6.94167L2.975 40.97H2.94667C2.65483 44.7185 2.47067 48.8835 2.39417 53.465H0C0.155833 47.8947 0.544 42.67 1.16167 37.7967H4.42L8.2025 49.3114H8.22517L12.0417 37.7967H15.1442C15.8298 43.5059 16.2322 48.7334 16.3568 53.465H16.3483ZM27.7298 41.905C26.6588 47.6992 25.2478 51.9152 23.5025 54.5417C22.1368 56.5704 20.6408 57.5819 19.0173 57.5819C18.5838 57.5819 18.054 57.4515 17.4137 57.1909V55.7912C17.7253 55.8394 18.0937 55.8649 18.5073 55.8649C19.2667 55.8649 19.8758 55.6524 20.3405 55.2359C20.8987 54.7259 21.1763 54.1535 21.1763 53.5217C21.1763 53.0825 20.9582 52.19 20.5247 50.847L17.6517 41.905H20.23L22.2898 48.5917C22.7545 50.1104 22.95 51.17 22.8707 51.7735C24.004 48.7589 24.7917 45.4637 25.2365 41.905H27.7298ZM62.6507 53.465H55.199V37.7967H57.7065V51.5384H62.6507V53.465ZM53.244 53.8475L50.3653 52.4309C50.6203 52.2155 50.8668 51.9832 51.0878 51.7225C52.3147 50.2889 52.9238 48.1582 52.9238 45.339C52.9238 40.154 50.8895 37.5587 46.818 37.5587C44.8233 37.5587 43.265 38.216 42.143 39.5335C40.9247 40.9729 40.3127 43.0922 40.3127 45.8944C40.3127 48.6484 40.851 50.6714 41.939 51.9577C42.9307 53.1194 44.4238 53.7002 46.4242 53.7002C47.1722 53.7002 47.8578 53.6067 48.4783 53.4225L52.2325 55.6099L53.2525 53.8475H53.244ZM43.9167 50.3285C43.2792 49.3085 42.9618 47.6652 42.9618 45.4099C42.9618 41.463 44.1632 39.4882 46.5602 39.4882C47.8153 39.4882 48.7418 39.9614 49.3283 40.9049C49.963 41.9305 50.2803 43.5569 50.2803 45.7867C50.2803 49.7647 49.079 51.7594 46.682 51.7594C45.4212 51.7594 44.5003 51.2862 43.911 50.3427L43.9167 50.3285ZM39.219 49.1244C39.219 50.456 38.7317 51.5497 37.757 52.3997C36.7823 53.2497 35.4818 53.6747 33.8357 53.6747C32.2972 53.6747 30.821 53.1874 29.3788 52.2155L30.0503 50.8669C31.2913 51.4902 32.4105 51.7962 33.422 51.7962C34.3627 51.7962 35.1022 51.5894 35.6405 51.1729C36.1732 50.7564 36.4905 50.1699 36.4905 49.4304C36.4905 48.4954 35.8388 47.702 34.6545 47.0362C33.5552 46.4327 31.3593 45.1747 31.3593 45.1747C30.1637 44.3049 29.5687 43.3727 29.5687 41.8399C29.5687 40.5649 30.0135 39.5449 30.9003 38.7657C31.7928 37.978 32.9403 37.5899 34.357 37.5899C35.8077 37.5899 37.1337 37.9752 38.3237 38.7515L37.7202 40.1002C36.7002 39.6695 35.6943 39.4485 34.7055 39.4485C33.9037 39.4485 33.2832 39.6412 32.8525 40.0322C32.419 40.4175 32.1498 40.9105 32.1498 41.5169C32.1498 42.4462 32.8128 43.2452 34.0368 43.9252C35.1503 44.5344 37.4 45.8235 37.4 45.8235C38.6268 46.6877 39.236 47.6085 39.236 49.1329L39.219 49.1244ZM65.8013 32.5437C64.2855 32.504 63.1097 32.657 62.1265 33.0764C61.8432 33.1897 61.3898 33.1897 61.3502 33.5495C61.506 33.6997 61.5287 33.9462 61.6618 34.1559C61.8885 34.5355 62.2795 35.0427 62.6422 35.309C63.0388 35.6207 63.4355 35.921 63.852 36.1874C64.5887 36.6407 65.4245 36.9099 66.147 37.366C66.5578 37.6324 66.9772 37.9695 67.3937 38.2529C67.6005 38.3945 67.7337 38.6495 68 38.7402V38.6835C67.8697 38.5135 67.83 38.267 67.7025 38.0772C67.5127 37.8874 67.3228 37.7174 67.1358 37.5304C66.5862 36.7937 65.9033 36.1505 65.1667 35.6179C64.5603 35.2042 63.2343 34.6262 62.985 33.932L62.9482 33.8924C63.3618 33.8555 63.8548 33.7054 64.2515 33.592C64.8947 33.422 65.484 33.4589 66.1498 33.2917C66.4502 33.2152 66.7533 33.1217 67.0565 33.0254V32.8554C66.7165 32.5154 66.4615 32.0535 66.1102 31.7362C65.1468 30.9004 64.0787 30.0872 62.9822 29.4044C62.3872 29.0247 61.6335 28.781 61.0073 28.458C60.7807 28.3447 60.401 28.288 60.2707 28.0982C59.9307 27.6845 59.7323 27.1349 59.4915 26.6419C58.9475 25.5992 58.4148 24.446 57.9417 23.3467C57.6017 22.6044 57.3948 21.8649 56.9783 21.1849C55.0233 17.9634 52.9068 16.0112 49.6513 14.1015C48.9515 13.7049 48.1128 13.5349 47.226 13.3252C46.7528 13.3025 46.2797 13.2685 45.8093 13.2487C45.4977 13.1155 45.1973 12.7557 44.931 12.5829C43.8543 11.9029 41.0663 10.4295 40.273 12.3789C39.763 13.6085 41.0295 14.8212 41.4687 15.4445C41.7945 15.878 42.2053 16.3739 42.432 16.8612C42.5652 17.1899 42.602 17.527 42.7352 17.8699C43.0355 18.7029 43.3217 19.6322 43.7183 20.4114C43.9252 20.808 44.1518 21.2245 44.4182 21.5815C44.5712 21.7884 44.8318 21.8847 44.8913 22.2247C44.625 22.61 44.608 23.171 44.455 23.6414C43.775 25.7862 44.0413 28.4382 45.0047 30.0164C45.3078 30.4867 46.0303 31.5294 46.9965 31.1299C47.8465 30.7899 47.6595 29.7132 47.9032 28.764C47.9598 28.5374 47.923 28.3872 48.0392 28.2342V28.2767C48.3055 28.8094 48.5718 29.3165 48.8155 29.8492C49.3992 30.7785 50.4192 31.7419 51.272 32.385C51.7253 32.725 52.0852 33.3144 52.6518 33.524V33.4674H52.6093C52.4875 33.303 52.326 33.2237 52.173 33.0905C51.833 32.7505 51.4505 32.334 51.1813 31.9572C50.388 30.889 49.6882 29.7189 49.0648 28.5062C48.7532 27.9112 48.4925 27.2709 48.2432 26.6844C48.1298 26.4577 48.1298 26.1177 47.94 26.0044C47.6567 26.418 47.2402 26.7779 47.0333 27.2879C46.6735 28.1039 46.6367 29.1069 46.5007 30.1495C46.4242 30.1694 46.461 30.1495 46.4242 30.1892C45.8178 30.0419 45.611 29.4129 45.3843 28.8859C44.8177 27.54 44.7242 25.3782 45.2143 23.8284C45.3475 23.4317 45.9142 22.1794 45.6875 21.7997C45.5685 21.4399 45.1945 21.233 44.9877 20.9412C44.7412 20.5899 44.4777 20.1337 44.3077 19.7314C43.8543 18.6717 43.6277 17.4987 43.1347 16.439C42.908 15.9489 42.5113 15.436 42.1883 14.9855C41.8285 14.4755 41.4318 14.1157 41.1457 13.5122C41.0522 13.3054 40.919 12.9625 41.0692 12.7359C41.1088 12.5829 41.1882 12.5234 41.3355 12.4809C41.5848 12.2769 42.2847 12.5432 42.5312 12.6565C43.231 12.9399 43.8203 13.2062 44.4068 13.6029C44.6732 13.7899 44.9593 14.1497 45.2993 14.2432H45.696C46.3023 14.3764 46.9852 14.2829 47.5518 14.45C48.5577 14.773 49.4643 15.2434 50.2775 15.7534C52.7595 17.3287 54.7995 19.5642 56.185 22.2304C56.4117 22.6667 56.5108 23.0662 56.7177 23.5195C57.1143 24.4545 57.6045 25.398 58.0068 26.3019C58.4035 27.1944 58.786 28.1039 59.3555 28.8434C59.6388 29.24 60.7778 29.4469 61.2878 29.6537C61.6647 29.8237 62.2512 29.9795 62.5912 30.1864C63.2428 30.583 63.8775 31.0364 64.4895 31.4727C64.8012 31.688 65.7447 32.1612 65.8013 32.5437Z" fill="black"/>
</svg>
