<svg width="62" height="62" viewBox="0 0 62 62" fill="none" xmlns="http://www.w3.org/2000/svg">
<g clip-path="url(#clip0_33_182)">
<path d="M36.9675 0.465L39.2925 0.981667L41.1783 1.65333L42.7025 2.42833L43.865 3.255L44.7433 4.13333L45.3892 5.01167L45.8025 5.86417L46.0608 6.63917L46.1642 7.31083L46.2158 7.8275L46.19 8.16333V21.9583L46.0608 23.5858L45.725 25.0067L45.1825 26.195L44.5108 27.1767L43.7358 27.9775L42.8833 28.6233L41.9792 29.1142L41.075 29.4758L40.2225 29.7342L39.4475 29.915L38.7758 30.0183L38.2333 30.07H22.8108L21.0283 30.1992L19.5042 30.5608L18.2125 31.1292L17.1533 31.8267L16.3008 32.6533L15.6033 33.5575L15.0867 34.4875L14.6992 35.4433L14.4408 36.3475L14.26 37.1742L14.1567 37.8717L14.105 38.4142V46.3192H8.34417L7.80167 46.2417L7.07833 46.0608L6.25167 45.7508L5.3475 45.2858L4.4175 44.6142L3.4875 43.6842L2.58333 42.4958L1.75667 40.9717L1.03333 39.0858L0.490833 36.8125L0.129167 34.1L0 30.9225L0.155 27.7708L0.568333 25.0842L1.18833 22.8367L2.015 21.0025L2.945 19.53L3.97833 18.3933L5.06333 17.5408L6.14833 16.9208L7.18167 16.5075L8.11167 16.2492L8.93833 16.12L9.55833 16.0942H9.97167L10.1267 16.12H31.2067V13.9758H16.12L16.0942 6.87167L16.0425 5.91583L16.1717 5.0375L16.4558 4.23667L16.895 3.51333L17.5408 2.84167L18.3417 2.2475L19.3233 1.73083L20.46 1.26583L21.7775 0.878333L23.2758 0.568333L24.9292 0.31L26.7633 0.155L28.7525 0.0516667L30.9225 0L34.2033 0.129167L36.9675 0.465ZM20.6925 5.58L20.0983 6.4325L19.8917 7.49167L20.0983 8.55083L20.6925 9.42917L21.545 9.9975L22.6042 10.23L23.6633 9.9975L24.5158 9.42917L25.11 8.55083L25.3167 7.49167L25.11 6.4325L24.5158 5.58L23.6633 5.01167L22.6042 4.77917L21.545 5.01167L20.6925 5.58ZM54.5083 15.7842L55.2317 15.9392L56.0583 16.2492L56.9625 16.7142L57.8925 17.4117L58.8225 18.3158L59.7267 19.53L60.5533 21.0542L61.2767 22.94L61.8192 25.2133L62.1808 27.9L62.31 31.0775L62.155 34.255L61.7417 36.9417L61.1217 39.1633L60.295 40.9975L59.365 42.47L58.3317 43.6325L57.2467 44.485L56.1617 45.105L55.1283 45.5183L54.1983 45.7508L53.3717 45.88L52.7517 45.9317L52.3383 45.9058H31.1033V48.0242H46.19L46.2158 55.1542L46.2675 56.0842L46.1383 56.9625L45.8542 57.7633L45.415 58.5125L44.7692 59.1583L43.9683 59.7783L42.9867 60.295L41.85 60.7342L40.5325 61.1217L39.0342 61.4575L37.3808 61.69L35.5467 61.8708L33.5575 61.9742L31.3875 62L28.1067 61.8967L25.3425 61.535L23.0175 61.0183L21.1317 60.3725L19.6075 59.5975L18.445 58.745L17.5667 57.8667L16.9208 56.9883L16.5075 56.1358L16.2492 55.3608L16.1458 54.715L16.0942 54.1983L16.12 53.8625V40.0675L16.2492 38.4142L16.585 37.0192L17.1275 35.8308L17.7992 34.8492L18.5742 34.0225L19.4267 33.4025L20.3308 32.8858L21.235 32.5242L22.0875 32.2658L22.8625 32.1108L23.5342 32.0075L24.0767 31.9558L24.4125 31.93H39.4992L41.2817 31.8008L42.8058 31.4392L44.0975 30.8967L45.1567 30.1733L46.0092 29.3467L46.7067 28.4425L47.2233 27.5125L47.6108 26.5825L47.8692 25.6783L48.05 24.8517L48.1533 24.1283L48.205 23.5858V15.6808H53.6042L53.9658 15.7067L54.5083 15.7842ZM37.7942 52.5967L37.2 53.4492L36.9933 54.5083L37.2 55.5675L37.7942 56.42L38.6467 57.0142L39.7058 57.2208L40.765 57.0142L41.6175 56.42L42.2117 55.5675L42.4183 54.5083L42.2117 53.4492L41.6175 52.5967L40.765 52.0025L39.7058 51.7958L38.6467 52.0025L37.7942 52.5967Z" fill="black"/>
</g>
<defs>
<clipPath id="clip0_33_182">
<rect width="62" height="62" fill="white"/>
</clipPath>
</defs>
</svg>
