<svg width="66" height="66" viewBox="0 0 66 66" fill="none" xmlns="http://www.w3.org/2000/svg">
<path d="M33 27.1136C29.7557 27.1136 27.1136 29.7557 27.1136 33C27.1136 36.2443 29.7557 38.8864 33 38.8864C36.2443 38.8864 38.8864 36.2443 38.8864 33C38.8864 29.7557 36.2443 27.1136 33 27.1136ZM16.5206 44.6985L15.2213 44.3768C5.55225 41.9265 0 37.7809 0 32.9897C0 28.1985 5.55431 24.0529 15.2213 21.6026L16.5206 21.2809L16.8857 22.5699C17.8633 25.9421 19.1194 29.2298 20.6353 32.4101L20.9138 32.9897L20.6353 33.5796C19.1214 36.7476 17.8633 40.0352 16.8857 43.4198L16.5206 44.6985ZM14.6211 24.6098C7.27238 26.6723 2.76169 29.8403 2.76169 32.9897C2.76169 36.1391 7.27444 39.2948 14.6211 41.3696C15.5244 38.5007 16.6093 35.7081 17.8757 32.9897C16.6073 30.2713 15.5224 27.4787 14.6211 24.6098ZM49.4794 44.6985L49.1143 43.4095C48.1367 40.0373 46.8806 36.7496 45.3647 33.5796L45.0863 32.9897L45.3647 32.3998C46.8786 29.2318 48.1367 25.9442 49.1143 22.5596L49.4794 21.2809L50.7788 21.6026C60.4478 24.0529 66 28.1985 66 32.9897C66 37.7809 60.4457 41.9265 50.7788 44.3768L49.4794 44.6985ZM48.1243 32.9897C49.4464 35.8463 50.5416 38.6513 51.3789 41.3696C58.7379 39.2968 63.2383 36.1391 63.2383 32.9897C63.2383 29.8403 58.7256 26.6846 51.3789 24.6098C50.4756 27.4663 49.3907 30.2713 48.1243 32.9897ZM14.5984 24.5994L14.2333 23.3104C11.5149 13.728 12.342 6.8537 16.5 4.45707C20.5817 2.10376 27.1239 4.88607 33.9879 11.9336L34.9222 12.8906L33.9879 13.8476C31.5501 16.3824 29.3267 19.1111 27.3281 22.011L26.9527 22.5369L26.3072 22.5906C22.7948 22.869 19.3132 23.4279 15.8978 24.2674L14.5984 24.5994ZM19.8186 6.37107C19.0781 6.37107 18.4223 6.52163 17.8736 6.84338C15.1449 8.42326 14.6623 13.9013 16.5413 21.2912C19.4741 20.6353 22.4379 20.1733 25.4368 19.9052C27.1549 17.4549 29.0462 15.114 31.0757 12.9113C26.7898 8.73264 22.7288 6.36901 19.8186 6.36901V6.37107ZM46.1917 62.3576C46.1814 62.3576 46.1814 62.3576 46.1917 62.3576C42.2709 62.3576 37.2323 59.4144 32.0121 54.0437L31.0777 53.0867L32.0121 52.1297C34.4499 49.5949 36.6733 46.8662 38.6719 43.9663L39.0369 43.4404L39.6825 43.3764C43.1949 43.1083 46.6764 42.5494 50.1022 41.6996L51.4016 41.3779L51.7667 42.6669C54.4851 52.2493 53.658 59.1133 49.5 61.5079C48.4894 62.0874 47.3509 62.3783 46.1917 62.3556V62.3576ZM34.9222 53.0661C39.2081 57.2447 43.2692 59.6083 46.1794 59.6083H46.1897C46.9198 59.6083 47.5757 59.4474 48.1243 59.136C50.853 57.5561 51.348 52.0781 49.4567 44.6882C46.5238 45.3441 43.5476 45.8061 40.5611 46.0639C38.8431 48.5244 36.9517 50.8551 34.9222 53.0681V53.0661ZM51.4016 24.5994L50.1022 24.2674C46.6764 23.43 43.1949 22.8711 39.6825 22.5906L39.0369 22.5369L38.6719 22.011C36.6733 19.1111 34.4499 16.3824 32.0121 13.8476L31.0777 12.8906L32.0121 11.9336C38.8761 4.88607 45.4183 2.10376 49.5 4.45707C53.658 6.85163 54.4851 13.728 51.7667 23.3104L51.4016 24.5994ZM40.5632 19.9052C43.7002 20.196 46.6867 20.658 49.4587 21.2912C51.3501 13.9013 50.8551 8.4212 48.1264 6.84338C45.408 5.27588 40.2951 7.68076 34.9243 12.9133C36.9538 15.1264 38.8348 17.457 40.5632 19.9073V19.9052ZM19.8186 62.3576C18.6574 62.3783 17.5086 62.0895 16.5 61.5099C12.342 59.1154 11.5149 52.2493 14.2333 42.669L14.5984 41.3799L15.8978 41.7017C19.0781 42.5081 22.5802 43.065 26.3072 43.3785L26.9527 43.4424L27.3178 43.9684C29.3164 46.8683 31.5398 49.5969 33.9776 52.1318L34.9119 53.0888L33.9776 54.0458C28.7678 59.4165 23.7291 62.3597 19.8186 62.3597V62.3576ZM16.5433 44.6882C14.652 52.0781 15.147 57.5582 17.8757 59.136C20.5941 60.6829 25.6967 58.2986 31.0777 53.0661C29.0483 50.853 27.1569 48.5224 25.4389 46.0618C22.4421 45.804 19.4762 45.342 16.5433 44.6861V44.6882ZM33 46.4166C30.7333 46.4166 28.413 46.3196 26.0824 46.1258L25.4368 46.0721L25.0614 45.5359C23.7518 43.6446 22.5039 41.7017 21.3551 39.7031C20.1939 37.7046 19.1318 35.6648 18.1438 33.5796L17.8654 32.9897L18.1438 32.3998C19.1318 30.3167 20.196 28.2748 21.3551 26.2763C22.4936 24.3107 23.7394 22.3451 25.0614 20.4435L25.4368 19.9073L26.0824 19.8536C30.69 19.4659 35.3203 19.4659 39.9176 19.8536L40.5632 19.9073L40.9386 20.4435C43.5703 24.2241 45.8906 28.2315 47.8562 32.3998L48.1346 32.9897L47.8562 33.5796C45.8906 37.7479 43.5806 41.7553 40.9386 45.5359L40.5632 46.0721L39.9176 46.1258C37.5973 46.3196 35.2667 46.4166 33 46.4166ZM26.9631 43.4301C31.0241 43.7415 34.9759 43.7415 39.0472 43.4301C41.3139 40.1115 43.3331 36.6197 45.0842 32.9876C43.3434 29.3576 41.3242 25.8658 39.0369 22.5452C35.0192 22.2338 30.9808 22.2338 26.9631 22.5452C24.6758 25.8638 22.6545 29.3556 20.9158 32.9876C22.6669 36.6176 24.6861 40.1094 26.9631 43.4301Z" fill="black"/>
</svg>
